<svg preserveAspectRatio="none" overflow="visible" style="display: block;" width="13.9941" height="13.9941" viewBox="0 0 13.9941 13.9941" fill="none" xmlns="http://www.w3.org/2000/svg">
<g id="Icon" clip-path="url(#clip0_0_20)">
<path id="Vector" d="M8.16322 1.16617L8.57547 0.753932C8.46643 0.644312 8.31774 0.583087 8.16322 0.583087V1.16617ZM11.6618 4.6647H12.2448C12.2448 4.51018 12.1836 4.36149 12.074 4.25246L11.6618 4.6647ZM8.16322 4.6647H7.58014C7.58014 4.98656 7.84136 5.24779 8.16322 5.24779V4.6647ZM9.3294 8.16322C9.65126 8.16322 9.91249 7.902 9.91249 7.58014C9.91249 7.25827 9.65126 6.99705 9.3294 6.99705V7.58014V8.16322ZM4.6647 6.99705C4.34284 6.99705 4.08161 7.25827 4.08161 7.58014C4.08161 7.902 4.34284 8.16322 4.6647 8.16322V7.58014V6.99705ZM9.3294 10.4956C9.65126 10.4956 9.91249 10.2344 9.91249 9.91249C9.91249 9.59062 9.65126 9.3294 9.3294 9.3294V9.91249V10.4956ZM4.6647 9.3294C4.34284 9.3294 4.08161 9.59062 4.08161 9.91249C4.08161 10.2344 4.34284 10.4956 4.6647 10.4956V9.91249V9.3294ZM5.83087 5.83087C6.15274 5.83087 6.41396 5.56965 6.41396 5.24779C6.41396 4.92592 6.15274 4.6647 5.83087 4.6647V5.24779V5.83087ZM4.6647 4.6647C4.34284 4.6647 4.08161 4.92592 4.08161 5.24779C4.08161 5.56965 4.34284 5.83087 4.6647 5.83087V5.24779V4.6647ZM8.16322 1.16617V0.583087H3.49852V1.16617V1.74926H8.16322V1.16617ZM3.49852 1.16617V0.583087C3.03439 0.583087 2.58949 0.767343 2.2618 1.09562L2.67404 1.50786L3.08628 1.92011C3.19532 1.81049 3.34401 1.74926 3.49852 1.74926V1.16617ZM2.67404 1.50786L2.2618 1.09562C1.93352 1.42332 1.74926 1.86821 1.74926 2.33235H2.33235H2.91544C2.91544 2.17783 2.97666 2.02914 3.08628 1.92011L2.67404 1.50786ZM2.33235 2.33235H1.74926V11.6618H2.33235H2.91544V2.33235H2.33235ZM2.33235 11.6618H1.74926C1.74926 12.1259 1.93352 12.5708 2.2618 12.8985L2.67404 12.4862L3.08628 12.074C2.97666 11.965 2.91544 11.8163 2.91544 11.6618H2.33235ZM2.67404 12.4862L2.2618 12.8985C2.58949 13.2268 3.03439 13.411 3.49852 13.411V12.8279V12.2448C3.34401 12.2448 3.19532 12.1836 3.08628 12.074L2.67404 12.4862ZM3.49852 12.8279V13.411H10.4956V12.8279V12.2448H3.49852V12.8279ZM10.4956 12.8279V13.411C10.9597 13.411 11.4046 13.2268 11.7323 12.8985L11.3201 12.4862L10.9078 12.074C10.7988 12.1836 10.6501 12.2448 10.4956 12.2448V12.8279ZM11.3201 12.4862L11.7323 12.8985C12.0606 12.5708 12.2448 12.1259 12.2448 11.6618H11.6618H11.0787C11.0787 11.8163 11.0174 11.965 10.9078 12.074L11.3201 12.4862ZM11.6618 11.6618H12.2448V4.6647H11.6618H11.0787V11.6618H11.6618ZM11.6618 4.6647L12.074 4.25246L8.57547 0.753932L8.16322 1.16617L7.75098 1.57842L11.2495 5.07694L11.6618 4.6647ZM8.16322 1.16617H7.58014V4.6647H8.16322H8.74631V1.16617H8.16322ZM8.16322 4.6647V5.24779H11.6618V4.6647V4.08161H8.16322V4.6647ZM9.3294 7.58014V6.99705H4.6647V7.58014V8.16322H9.3294V7.58014ZM9.3294 9.91249V9.3294H4.6647V9.91249V10.4956H9.3294V9.91249ZM5.83087 5.24779V4.6647H4.6647V5.24779V5.83087H5.83087V5.24779Z" fill="#A1A1A6"/>
</g>
<defs>
<clipPath id="clip0_0_20">
<rect width="13.9941" height="13.9941" fill="white"/>
</clipPath>
</defs>
</svg>
