<svg preserveAspectRatio="none" overflow="visible" style="display: block;" width="13.9941" height="13.9941" viewBox="0 0 13.9941 13.9941" fill="none" xmlns="http://www.w3.org/2000/svg">
<g id="Icon">
<path id="Vector" d="M1.74926 1.74926V1.16618C1.4274 1.16618 1.16618 1.4274 1.16618 1.74926H1.74926ZM5.83088 1.74926H6.41396C6.41396 1.4274 6.15274 1.16618 5.83088 1.16618V1.74926ZM5.83088 5.83088V6.41396C6.15274 6.41396 6.41396 6.15274 6.41396 5.83088H5.83088ZM1.74926 5.83088H1.16618C1.16618 6.15274 1.4274 6.41396 1.74926 6.41396V5.83088ZM8.16323 1.74926V1.16618C7.84136 1.16618 7.58014 1.4274 7.58014 1.74926H8.16323ZM12.2448 1.74926H12.8279C12.8279 1.4274 12.5667 1.16618 12.2448 1.16618V1.74926ZM12.2448 5.83088V6.41396C12.5667 6.41396 12.8279 6.15274 12.8279 5.83088H12.2448ZM8.16323 5.83088H7.58014C7.58014 6.15274 7.84136 6.41396 8.16323 6.41396V5.83088ZM8.16323 8.16323V7.58014C7.84136 7.58014 7.58014 7.84136 7.58014 8.16323H8.16323ZM12.2448 8.16323H12.8279C12.8279 7.84136 12.5667 7.58014 12.2448 7.58014V8.16323ZM12.2448 12.2448V12.8279C12.5667 12.8279 12.8279 12.5667 12.8279 12.2448H12.2448ZM8.16323 12.2448H7.58014C7.58014 12.5667 7.84136 12.8279 8.16323 12.8279V12.2448ZM1.74926 8.16323V7.58014C1.4274 7.58014 1.16618 7.84136 1.16618 8.16323H1.74926ZM5.83088 8.16323H6.41396C6.41396 7.84136 6.15274 7.58014 5.83088 7.58014V8.16323ZM5.83088 12.2448V12.8279C6.15274 12.8279 6.41396 12.5667 6.41396 12.2448H5.83088ZM1.74926 12.2448H1.16618C1.16618 12.5667 1.4274 12.8279 1.74926 12.8279V12.2448ZM1.74926 1.74926V2.33235H5.83088V1.74926V1.16618H1.74926V1.74926ZM5.83088 1.74926H5.24779V5.83088H5.83088H6.41396V1.74926H5.83088ZM5.83088 5.83088V5.24779H1.74926V5.83088V6.41396H5.83088V5.83088ZM1.74926 5.83088H2.33235V1.74926H1.74926H1.16618V5.83088H1.74926ZM8.16323 1.74926V2.33235H12.2448V1.74926V1.16618H8.16323V1.74926ZM12.2448 1.74926H11.6618V5.83088H12.2448H12.8279V1.74926H12.2448ZM12.2448 5.83088V5.24779H8.16323V5.83088V6.41396H12.2448V5.83088ZM8.16323 5.83088H8.74631V1.74926H8.16323H7.58014V5.83088H8.16323ZM8.16323 8.16323V8.74631H12.2448V8.16323V7.58014H8.16323V8.16323ZM12.2448 8.16323H11.6618V12.2448H12.2448H12.8279V8.16323H12.2448ZM12.2448 12.2448V11.6618H8.16323V12.2448V12.8279H12.2448V12.2448ZM8.16323 12.2448H8.74631V8.16323H8.16323H7.58014V12.2448H8.16323ZM1.74926 8.16323V8.74631H5.83088V8.16323V7.58014H1.74926V8.16323ZM5.83088 8.16323H5.24779V12.2448H5.83088H6.41396V8.16323H5.83088ZM5.83088 12.2448V11.6618H1.74926V12.2448V12.8279H5.83088V12.2448ZM1.74926 12.2448H2.33235V8.16323H1.74926H1.16618V12.2448H1.74926Z" fill="#A1A1A6"/>
</g>
</svg>
